<?xml version="1.0" encoding="UTF-8" standalone="no"?>
<svg
   viewBox="0 0 36 36"
   version="1.1"
   id="svg6"
   sodipodi:docname="aq_2.svg"
   xml:space="preserve"
   inkscape:version="1.2.1 (9c6d41e410, 2022-07-14, custom)"
   xmlns:inkscape="http://www.inkscape.org/namespaces/inkscape"
   xmlns:sodipodi="http://sodipodi.sourceforge.net/DTD/sodipodi-0.dtd"
   xmlns="http://www.w3.org/2000/svg"
   xmlns:svg="http://www.w3.org/2000/svg"><defs
     id="defs10" /><sodipodi:namedview
     id="namedview8"
     pagecolor="#ffffff"
     bordercolor="#000000"
     borderopacity="0.25"
     inkscape:showpageshadow="2"
     inkscape:pageopacity="0.0"
     inkscape:pagecheckerboard="0"
     inkscape:deskcolor="#d1d1d1"
     showgrid="false"
     inkscape:zoom="43.811212"
     inkscape:cx="15.053224"
     inkscape:cy="18.317229"
     inkscape:window-width="2256"
     inkscape:window-height="1436"
     inkscape:window-x="0"
     inkscape:window-y="0"
     inkscape:window-maximized="1"
     inkscape:current-layer="g175" /><g
     inkscape:groupmode="layer"
     id="layer1"
     inkscape:label="Layer 1"><path
       style="fill:#1b2f4c;fill-opacity:1;stroke-width:0.0228252"
       d="M 0.01159988,13.381278 C 0.01172188,10.373932 0.01995261,8.6936001 0.03521397,8.5603776 0.24910514,6.6932358 1.7091848,5.239688 3.5769517,5.0344843 3.7315801,5.0174959 8.0981486,5.010133 18.018432,5.010133 c 12.635593,0 14.249844,0.00389 14.489201,0.034947 0.851273,0.1104426 1.612993,0.4730104 2.228354,1.060663 0.563643,0.5382655 0.923058,1.139273 1.119296,1.871667 0.133874,0.4996465 0.128656,0.2821791 0.128656,5.361147 v 4.659119 H 17.997676 0.0114126 Z"
       id="path733" /><path
       style="fill:#ffffff;fill-opacity:1;stroke-width:0.0228252"
       d="M 3.5264945,30.960333 C 3.2593608,30.925948 3.0173958,30.869848 2.7434493,30.778782 1.257884,30.28495 0.20987547,28.98276 0.03471114,27.413074 0.02012554,27.282369 0.01171904,25.536779 0.01159988,22.614074 L 0.0114126,18.020501 H 17.998146 35.984879 l -0.0067,4.753349 -0.0067,4.75335 -0.06067,0.265892 c -0.03337,0.14624 -0.09169,0.358484 -0.129599,0.471651 -0.424563,1.26723 -1.501541,2.271243 -2.783786,2.595179 -0.527132,0.133171 0.526229,0.124619 -15.022528,0.121957 -7.864996,-0.0013 -14.3667564,-0.01104 -14.4483565,-0.02155 z"
       id="path804" /></g><g
     inkscape:groupmode="layer"
     id="layer2"
     inkscape:label="Layer 2"
     style="display:inline"><g
       id="g175"
       transform="matrix(1.1562418,0,0,1.2130973,0.72863978,7.0701206)"><path
         fill="#ffffff"
         d="M 8.6937395,1.1909778 23.697461,1.004517 30,18 H 0 Z"
         id="path163"
         sodipodi:nodetypes="ccccc" /><path
         fill="#1b2f4c"
         d="M 0,0 H 30 V 9 H 20 L 15,1 10,9 H 0 Z m 10,9 5,8 5,-8 -5,2 z"
         id="path165"
         style="display:inline;fill:#1b2f4c;fill-opacity:1"
         inkscape:label="path165" /></g><path
       style="display:inline;fill:#1b2f4c;fill-opacity:1;stroke-width:0.0228252"
       d="m 0.78746965,6.6397739 c 0,-0.031732 0.31017225,-0.3821598 0.47801715,-0.5400562 0.6473433,-0.6089743 1.4248256,-0.9666072 2.3180707,-1.0662862 0.1353341,-0.015102 5.0589477,-0.022988 14.4300685,-0.023111 12.640632,-1.664e-4 14.254636,0.0037 14.494007,0.03476 1.014281,0.131591 1.940176,0.6473005 2.590711,1.4429852 L 35.23364,6.6535479 H 18.010555 c -9.472697,0 -17.22308535,-0.0062 -17.22308535,-0.013774 z"
       id="path731" /></g></svg>
